<?xml version="1.0" encoding="UTF-8"?>
<!DOCTYPE svg PUBLIC "-//W3C//DTD SVG 1.1//EN" "http://www.w3.org/Graphics/SVG/1.1/DTD/svg11.dtd">
<svg xmlns="http://www.w3.org/2000/svg" version="1.1" width="256px" height="256px" style="shape-rendering:geometricPrecision; text-rendering:geometricPrecision; image-rendering:optimizeQuality; fill-rule:evenodd; clip-rule:evenodd" xmlns:xlink="http://www.w3.org/1999/xlink">
<g><path style="opacity:0.989" fill="#fdda7a" d="M 13.5,-0.5 C 89.5,-0.5 165.5,-0.5 241.5,-0.5C 248.167,2.16667 252.833,6.83333 255.5,13.5C 255.5,89.5 255.5,165.5 255.5,241.5C 252.833,248.167 248.167,252.833 241.5,255.5C 165.5,255.5 89.5,255.5 13.5,255.5C 6.83333,252.833 2.16667,248.167 -0.5,241.5C -0.5,165.5 -0.5,89.5 -0.5,13.5C 2.16667,6.83333 6.83333,2.16667 13.5,-0.5 Z"/></g>
<g><path style="opacity:1" fill="#2b4d58" d="M 15.5,6.5 C 90.1674,6.33334 164.834,6.5 239.5,7C 243.667,8.5 246.5,11.3333 248,15.5C 248.667,90.1667 248.667,164.833 248,239.5C 246.5,243.667 243.667,246.5 239.5,248C 164.833,248.667 90.1667,248.667 15.5,248C 11.3333,246.5 8.5,243.667 7,239.5C 6.33333,164.833 6.33333,90.1667 7,15.5C 8.68784,11.3148 11.5212,8.31481 15.5,6.5 Z"/></g>
<g><path style="opacity:1" fill="#fbd97a" d="M 135.5,135.5 C 134.502,162.662 134.169,189.995 134.5,217.5C 136.415,217.784 138.081,217.451 139.5,216.5C 163.653,213.094 183.32,201.927 198.5,183C 204.969,180.234 208.969,182.234 210.5,189C 210.616,191.544 209.783,193.711 208,195.5C 175.281,230.179 136.114,240.346 90.5,226C 51.4914,209.648 28.9914,180.482 23,138.5C 20.1101,97.7875 34.9434,65.2875 67.5,41C 103.819,18.2099 141.153,16.5432 179.5,36C 215.13,57.7519 232.63,89.5852 232,131.5C 230.786,133.049 229.286,134.215 227.5,135C 196.835,135.5 166.168,135.667 135.5,135.5 Z"/></g>
<g><path style="opacity:1" fill="#2b4d58" d="M 116.5,38.5 C 117.5,38.5 118.5,38.5 119.5,38.5C 119.5,97.8333 119.5,157.167 119.5,216.5C 118.5,216.5 117.5,216.5 116.5,216.5C 80.9736,211.14 56.4736,191.807 43,158.5C 29.9154,116.094 40.7488,81.2602 75.5,54C 87.7986,45.1788 101.465,40.0121 116.5,38.5 Z"/></g>
<g><path style="opacity:1" fill="#9b986a" d="M 116.5,38.5 C 117.568,37.5655 118.901,37.2322 120.5,37.5C 120.5,97.5 120.5,157.5 120.5,217.5C 118.901,217.768 117.568,217.434 116.5,216.5C 117.5,216.5 118.5,216.5 119.5,216.5C 119.5,157.167 119.5,97.8333 119.5,38.5C 118.5,38.5 117.5,38.5 116.5,38.5 Z"/></g>
<g><path style="opacity:1" fill="#9c996b" d="M 139.5,38.5 C 138.167,38.5 136.833,38.5 135.5,38.5C 135.5,65.5 135.5,92.5 135.5,119.5C 134.502,92.3384 134.169,65.0051 134.5,37.5C 136.415,37.2155 138.081,37.5489 139.5,38.5 Z"/></g>
<g><path style="opacity:1" fill="#2b4d58" d="M 139.5,38.5 C 180.086,45.8818 205.586,69.5484 216,109.5C 216.497,111.81 216.663,114.143 216.5,116.5C 216.5,117.5 216.5,118.5 216.5,119.5C 189.5,119.5 162.5,119.5 135.5,119.5C 135.5,92.5 135.5,65.5 135.5,38.5C 136.833,38.5 138.167,38.5 139.5,38.5 Z"/></g>
<g><path style="opacity:1" fill="#9b986a" d="M 216.5,116.5 C 217.434,117.568 217.768,118.901 217.5,120.5C 189.995,120.831 162.662,120.498 135.5,119.5C 162.5,119.5 189.5,119.5 216.5,119.5C 216.5,118.5 216.5,117.5 216.5,116.5 Z"/></g>
<g><path style="opacity:1" fill="#9c996b" d="M 135.5,135.5 C 135.5,162.5 135.5,189.5 135.5,216.5C 136.833,216.5 138.167,216.5 139.5,216.5C 138.081,217.451 136.415,217.784 134.5,217.5C 134.169,189.995 134.502,162.662 135.5,135.5 Z"/></g>
</svg>
