<svg xmlns="http://www.w3.org/2000/svg" xmlns:xlink="http://www.w3.org/1999/xlink" height="800" width="1200" viewBox="-51.45885 -25.7315 445.9767 154.389"><defs><symbol overflow="visible" id="a"><path d="M15.031-26.813c0 7.094 1.328 10.579 6.86 15.141l8.53 7.11C35.829-.125 38.595 0 45.329 0H63.61c3.844 0 7.938-.844 7.938-5.766 0-5.062-4.563-5.78-7.938-5.78H43.297c-2.297 0-4.578-1.204-6.625-2.892l-6.969-5.89c-1.812-1.438-3.125-2.64-3.125-4.922v-14.313c0-2.28 1.313-3.484 3.125-4.937l6.969-5.89c2.047-1.672 4.328-2.876 6.625-2.876h20.312c3.375 0 7.938-.734 7.938-5.78 0-4.923-4.094-5.767-7.938-5.767H45.33c-6.735 0-9.5.126-14.907 4.563l-8.531 7.094c-5.532 4.578-6.86 8.062-6.86 15.156zm0 0"/></symbol><symbol overflow="visible" id="b"><path d="M71.547-56.875c0-3.969-.844-7.938-5.766-7.938-4.937 0-5.781 3.97-5.781 7.938v33.547L43.047-12.625c-1.078.719-2.281 1.078-3.61 1.078h-3.843c-2.766 0-5.766-.719-6.735-2.406-.968-1.672-1.078-4.813-1.203-7.453l-1.203-35.469c-.125-3.734-.719-7.938-5.656-7.938-5.281 0-5.89 4.454-5.766 8.657l1.203 36.312c.235 6.25.125 11.188 5.297 15.64C25.375-.968 28.984 0 32.234 0h8.532c3.125 0 6.25-1.438 9.984-3.844l9.375-6.14v1.921c0 3.97.844 8.063 5.766 8.063 6.14 0 5.656-5.89 5.656-8.531zm0 0"/></symbol><symbol overflow="visible" id="c"><path d="M15.031-7.938c0 3.97.844 7.938 5.766 7.938 4.937 0 5.781-3.969 5.781-7.938v-29.218L42.688-50.5c2.046-1.688 3.609-2.766 5.765-2.766h3.375c2.766 0 5.531 0 6.969 2.047C60-49.547 60-48.094 60-46.172c0 3.719 1.688 7.094 5.89 7.094 4.938 0 5.657-4.094 5.657-8.063 0-5.28-1.328-9.25-5.172-13.109-3.125-3.125-6.844-4.563-11.297-4.563h-9.266c-3.609 0-6.968 2.282-10.218 4.922l-9.016 7.47v-4.704c0-3.844-1.203-7.688-5.781-7.688-5.281 0-5.766 4.329-5.766 8.532zm0 0"/></symbol><symbol overflow="visible" id="d"><path d="M49.297-80.563c0-6.859-1.922-8.062-8.531-8.062H28.625c-3.86 0-7.938.844-7.938 5.766 0 5.062 4.563 5.78 7.938 5.78h9.14v65.532h-9.14c-3.86 0-7.938.844-7.938 5.781C20.688-.719 25.25 0 28.625 0h29.328c3.375 0 7.938-.719 7.938-5.766 0-4.937-4.079-5.78-7.938-5.78h-8.656zm0 0"/></symbol></defs><path d="M333.977 14.043a4.96 4.96 0 01-4.961-4.961 4.958 4.958 0 014.96-4.96 4.96 4.96 0 110 9.921m-49.269 84.762a4.96 4.96 0 01-4.96-4.961 4.958 4.958 0 014.96-4.961 4.957 4.957 0 014.957 4.96 4.96 4.96 0 01-4.957 4.962M333.977 0a9.082 9.082 0 00-9.082 9.082c0 1.07.27 2.066.609 3.02l-42.606 73.023c-4.117.863-7.273 4.344-7.273 8.719a9.082 9.082 0 009.082 9.082c5.012 0 9.078-4.067 9.078-9.082 0-1.008-.27-1.93-.57-2.836l42.82-73.262c3.992-.957 7.024-4.379 7.024-8.664A9.082 9.082 0 00333.977 0" fill="#0c544c"/><path d="M296.816 14.043a4.96 4.96 0 01-4.96-4.961 4.958 4.958 0 014.96-4.96 4.957 4.957 0 014.957 4.96 4.96 4.96 0 01-4.957 4.961m-49.273 84.762a4.96 4.96 0 110-9.922 4.958 4.958 0 014.96 4.96 4.96 4.96 0 01-4.96 4.962M296.816 0a9.08 9.08 0 00-9.082 9.082c0 1.07.27 2.066.61 3.02l-42.606 73.023c-4.12.863-7.277 4.344-7.277 8.719a9.082 9.082 0 0018.164 0c0-1.008-.27-1.93-.57-2.836l42.82-73.262c3.992-.957 7.023-4.379 7.023-8.664 0-5.016-4.07-9.082-9.082-9.082m-67.859 29.227a4.963 4.963 0 014.961 4.96 4.96 4.96 0 11-4.96-4.96m-.001 14.043a9.082 9.082 0 009.082-9.082c0-1.004-.273-1.93-.574-2.836-1.203-3.606-4.5-6.247-8.508-6.247-.64 0-1.203.239-1.809.368-4.117.859-7.273 4.34-7.273 8.715a9.082 9.082 0 009.082 9.082m-4.961 22.652a4.96 4.96 0 119.922 0 4.96 4.96 0 01-4.961 4.957 4.96 4.96 0 01-4.96-4.957m14.042 0c0-1.008-.273-1.93-.574-2.836-1.203-3.606-4.496-6.246-8.508-6.246-.64 0-1.203.238-1.809.363-4.117.863-7.273 4.344-7.273 8.719 0 5.012 4.066 9.082 9.082 9.082 5.016 0 9.082-4.07 9.082-9.082" fill="#073551"/><use xlink:href="#a" x="71.18" y="286.977" width="100%" height="100%" transform="translate(-86.211 -184.055)" fill="#073551"/><use xlink:href="#b" x="133.711" y="286.977" width="100%" height="100%" transform="translate(-86.211 -184.055)" fill="#073551"/><use xlink:href="#c" x="196.242" y="286.977" width="100%" height="100%" transform="translate(-86.211 -184.055)" fill="#073551"/><use xlink:href="#d" x="239.653" y="286.977" width="100%" height="100%" transform="translate(-86.211 -184.055)" fill="#073551"/></svg>