<svg class="svg-icon" style="width: 1em;height: 1em;vertical-align: middle;fill: currentColor;overflow: hidden;" viewBox="0 0 1024 1024" version="1.1" xmlns="http://www.w3.org/2000/svg"><path d="M128 128h768v768H128z" fill="#FFFFFF" /><path d="M128 96h768a32 32 0 0 1 32 32v768a32 32 0 0 1-32 32H128a32 32 0 0 1-32-32V128a32 32 0 0 1 32-32z m0 32v768h768V128H128z" fill="#5D6D7E" /><path d="M416 544h-96v96h96v-96z m32-32h128v-128h-128v-32h128V224h-128v288z m160-128v128h128v32h-128v96h128v-256h-128z m-32 256v-96h-128v96h128z m192 32H288v-160h128V192h192v160h160v320z" fill="#27A2DF" /><path d="M225.92 640H896a32 32 0 0 1 32 32v224a32 32 0 0 1-32 32H225.92a32 32 0 0 1-32-32v-224a32 32 0 0 1 32-32z m18.88 49.856V896h78.336c15.36 0 27.648-1.44 36.864-4.352 12.256-3.936 22.016-9.44 29.248-16.448 9.536-9.28 16.896-21.44 22.08-36.448 4.192-12.256 6.304-26.88 6.304-43.84 0-19.328-2.24-35.584-6.72-48.736a90.08 90.08 0 0 0-19.712-33.408 68.928 68.928 0 0 0-31.072-18.976c-8.992-2.624-22.08-3.936-39.232-3.936H244.8z m41.632 34.88h18.72c16.96 0 28.352 0.64 34.176 1.952 7.776 1.696 14.176 4.928 19.264 9.696 5.056 4.8 8.96 11.456 11.808 19.968 2.816 8.544 4.224 20.8 4.224 36.704 0 15.936-1.408 28.544-4.224 37.76-2.816 9.248-6.464 15.872-10.88 19.904a38.4 38.4 0 0 1-16.832 8.576c-5.152 1.312-13.536 1.984-25.184 1.984h-31.04v-136.576z m158.08 69.44c0 32.832 9.024 58.56 27.136 77.28 18.08 18.72 42.464 28.064 73.12 28.064 30.272 0 54.464-9.408 72.576-28.192 18.08-18.816 27.136-44.832 27.136-78.112 0-33.6-9.12-59.776-27.36-78.624-18.24-18.848-42.56-28.256-72.928-28.256-16.768 0-31.584 2.72-44.416 8.16-9.664 4.032-18.56 10.208-26.656 18.56-8.128 8.32-14.496 17.76-19.2 28.256-6.272 14.24-9.408 31.872-9.408 52.864z m42.88-1.408c0-23.68 5.248-41.44 15.744-53.216 10.496-11.776 24.32-17.632 41.504-17.632 17.152 0 30.912 5.792 41.28 17.408 10.336 11.648 15.52 29.28 15.52 52.896 0 23.904-5.312 41.824-15.968 53.76-10.624 11.968-24.256 17.952-40.832 17.952-16.608 0-30.304-6.016-41.088-18.08-10.784-12.032-16.16-29.76-16.16-53.088zM676.384 896h38.688v-162.272L755.84 896h40.096l40.896-162.272V896h38.688v-206.144h-62.432l-36.992 140.608-37.408-140.608h-62.304V896z" fill="#5D6D7E" /></svg>